<svg width="24" height="24" viewBox="0 0 24 24" fill="none" xmlns="http://www.w3.org/2000/svg">
    <rect width="24" height="24" fill="#10B981"/>
    <path d="M3.22713 17.84V6.16H7.01913C7.82979 6.16 8.53379 6.31467 9.13113 6.624C9.73913 6.93334 10.2085 7.37067 10.5391 7.936C10.8805 8.49067 11.0511 9.14667 11.0511 9.904V14.08C11.0511 14.8267 10.8805 15.4827 10.5391 16.048C10.2085 16.6133 9.73913 17.056 9.13113 17.376C8.53379 17.6853 7.82979 17.84 7.01913 17.84H3.22713ZM5.62713 15.68H7.01913C7.49913 15.68 7.88846 15.5307 8.18713 15.232C8.49646 14.9333 8.65113 14.5493 8.65113 14.08V9.904C8.65113 9.43467 8.49646 9.056 8.18713 8.768C7.88846 8.46934 7.49913 8.32 7.01913 8.32H5.62713V15.68Z"
          fill="white"/>
    <path d="M13.6529 17.84V6.16H16.0529V15.68H20.7729V17.84H13.6529Z" fill="white"/>
</svg>
